HIERARCHY
ROOT Hips
{
	OFFSET	0.00	0.00	0.00
	CHANNELS 6 Xposition Yposition Zposition Zrotation Xrotation Yrotation
	JOINT LeftHip
	{
		OFFSET	 3.430000	 0.000000	 0.000000
		CHANNELS 3 Zrotation Xrotation Yrotation
		JOINT LeftKnee
		{
			OFFSET	 0.000000	-18.469999	 0.000000
			CHANNELS 3 Zrotation Xrotation Yrotation
			JOINT LeftAnkle
			{
				OFFSET	 0.000000	-17.950001	 0.000000
				CHANNELS 3 Zrotation Xrotation Yrotation
				End Site 
				{
					OFFSET	 0.000000	-3.119996	 0.000000
				}
			}
		}
	}
	JOINT RightHip
	{
		OFFSET	-3.430000	 0.000000	 0.000000
		CHANNELS 3 Zrotation Xrotation Yrotation
		JOINT RightKnee
		{
			OFFSET	 0.000000	-18.809999	 0.000000
			CHANNELS 3 Zrotation Xrotation Yrotation
			JOINT RightAnkle
			{
				OFFSET	 0.000000	-17.570000	 0.000000
				CHANNELS 3 Zrotation Xrotation Yrotation
				End Site 
				{
					OFFSET	 0.000000	-3.250000	 0.000000
				}
			}
		}
	}
	JOINT Chest
	{
		OFFSET	 0.000000	 4.570000	 0.000000
		CHANNELS 3 Zrotation Xrotation Yrotation
		JOINT LeftCollar
		{
			OFFSET	 1.060000	 15.330000	 1.760000
			CHANNELS 3 Zrotation Xrotation Yrotation
			JOINT LeftShoulder
			{
				OFFSET	 5.810000	 0.000000	 0.000000
				CHANNELS 3 Zrotation Xrotation Yrotation
				JOINT LeftElbow
				{
					OFFSET	 0.000000	-12.080000	 0.000000
					CHANNELS 3 Zrotation Xrotation Yrotation
					JOINT LeftWrist
					{
						OFFSET	 0.000000	-9.820000	 0.000000
						CHANNELS 3 Zrotation Xrotation Yrotation
						End Site 
						{
							OFFSET	 0.000000	-7.369996	 0.000000
						}
					}
				}
			}
		}
		JOINT RightCollar
		{
			OFFSET	-1.060000	 15.330000	 1.760000
			CHANNELS 3 Zrotation Xrotation Yrotation
			JOINT RightShoulder
			{
				OFFSET	-6.060000	 0.000000	 0.000000
				CHANNELS 3 Zrotation Xrotation Yrotation
				JOINT RightElbow
				{
					OFFSET	 0.000000	-11.900000	 0.000000
					CHANNELS 3 Zrotation Xrotation Yrotation
					JOINT RightWrist
					{
						OFFSET	 0.000000	-9.520000	 0.000000
						CHANNELS 3 Zrotation Xrotation Yrotation
						End Site 
						{
							OFFSET	 0.000000	-7.140012	 0.000000
						}
					}
				}
			}
		}
		JOINT Neck
		{
			OFFSET	 0.000000	 17.620001	 0.000000
			CHANNELS 3 Zrotation Xrotation Yrotation
			JOINT Head
			{
				OFFSET	 0.000000	 5.190000	 0.000000
				CHANNELS 3 Zrotation Xrotation Yrotation
				End Site 
				{
					OFFSET	 0.000000	 4.140008	 0.000000
				}
			}
		}
	}
}

MOTION
Frames: 18
Frame Time: 0.033333
13.1815 -4.5427 -51.3171 -6.04699 2.40707 76.4001 2.81365 -58.1505 8.41258 14.544 53.5009 -11.1752 -5.41126 -5.31858 -4.34223 -18.5082 -12.8308 -16.874 -14.6602 63.3697 16.7432 18.0711 -6.6008 10.6295 11.2807 40.0306 -1.40387 0 0 0 23.1191 -12.6942 9.70565 -30.8401 -34.2258 -15.9952 27.085 -28.7433 -14.8235 0 0 0 -34.9729 -27.7054 -21.9341 7.77606 -20.8806 9.17935 -26.9097 -8.94309 29.2995 0 0 0 -9.4122 -44.0961 6.45199 
14.0755 -4.0882 -50.943 -6.88963 2.12209 78.98 1.3086 -56.4923 7.38167 13.9221 52.6794 -11.4422 -5.23288 -4.72466 -5.38415 -16.8868 -20.086 -17.887 -15.1037 64.2734 16.7691 17.3595 -5.98843 12.0303 12.3763 38.985 -3.26838 0 0 0 24.6707 -13.7033 9.44531 -33.5854 -35.9237 -17.9598 27.3136 -27.0484 -12.3931 0 0 0 -32.6143 -24.3194 -18.3535 9.8262 -25.1055 10.5442 -29.8752 -11.1493 24.7743 0 0 0 -9.07089 -43.9752 5.3336 
14.8941 -3.5759 -50.4909 -8.13945 1.94917 81.6561 0.51723 -55.4481 7.02878 13.0972 51.7181 -11.4257 -5.07666 -3.44589 -6.79374 -16.41 -27.7962 -18.6168 -13.7945 63.3219 15.4764 16.7801 -5.76014 14.3486 13.6703 38.1087 -5.10068 0 0 0 26.3141 -14.602 9.06866 -36.6328 -37.6686 -20.2109 27.1886 -25.4999 -9.56796 0 0 0 -31.1381 -21.4583 -16.4354 12.2562 -29.4402 12.148 -32.2623 -12.9705 21.1192 0 0 0 -9.06238 -44.1998 3.8169 
15.655 -3.1214 -49.9611 -9.53558 1.67296 84.3956 -0.0699851 -54.8965 7.27677 12.1938 50.8394 -11.3861 -4.50413 -2.00575 -8.88609 -17.4468 -35.5075 -19.6949 -11.1012 60.6158 12.8492 16.1174 -5.07805 15.5965 15.2787 37.4053 -6.86709 0 0 0 27.4783 -15.3858 8.19989 -39.7555 -39.1693 -22.6348 27.3422 -24.4951 -6.77506 0 0 0 -30.5711 -18.7384 -15.5176 15.2382 -33.8856 14.7079 -35.3114 -15.213 17.7825 0 0 0 -9.68058 -44.6497 1.6211 
16.3758 -2.7447 -49.3282 -10.9362 1.28263 87.4664 -0.766518 -54.7879 7.72666 11.148 50.1945 -11.0353 -3.5834 -0.415943 -11.4572 -19.542 -42.4977 -21.2972 -8.78001 56.442 10.658 15.0254 -1.95329 14.4672 17.1124 36.8974 -8.46809 0 0 0 28.1323 -16.3158 6.85835 -42.8821 -40.4921 -24.891 27.4771 -23.9336 -4.36845 0 0 0 -30.7828 -16.3347 -15.3941 18.9207 -38.1262 17.7033 -39.5485 -17.882 15.2913 0 0 0 -10.9377 -45.2654 -1.55475 
16.9508 -2.5438 -48.6326 -12.3794 0.615741 91.1688 -1.75937 -55.57 7.4519 10.3206 50.3624 -10.4691 -3.53036 1.18615 -13.4725 -21.259 -47.1741 -21.5908 -7.12659 51.4651 8.69314 13.5436 1.47573 13.0602 19.2247 36.3724 -9.93818 0 0 0 28.4244 -17.1122 5.49977 -45.4037 -41.3038 -26.5083 27.3608 -24.2565 -2.91834 0 0 0 -31.2257 -14.4423 -16.4448 22.7513 -41.963 20.846 -42.9831 -20.0705 12.7833 0 0 0 -12.8047 -46.0078 -5.76206 
17.5611 -2.5739 -47.7436 -13.1822 -0.707168 96.1231 -3.12653 -56.0963 6.71049 9.5531 50.9477 -10.2201 -4.12263 2.54554 -15.1606 -23.0325 -50.4905 -21.8726 -5.42867 46.5067 7.09457 12.5888 4.28789 11.1188 21.7594 35.5587 -11.7461 0 0 0 28.2328 -17.4764 3.9996 -47.898 -42.0336 -28.4546 27.1225 -24.5975 -1.58001 0 0 0 -31.5319 -12.3617 -17.6161 27.4785 -45.7963 24.5527 -46.2603 -22.4744 10.0809 0 0 0 -14.7878 -46.5221 -10.6339 
18.0005 -2.8276 -46.8747 -12.8381 -2.36582 101.825 -3.41884 -56.7008 6.54462 9.42973 52.1664 -10.4047 -5.87672 3.09681 -16.3465 -24.1252 -52.4668 -20.9453 -3.93559 43.7601 6.29566 12.89 7.55744 10.1723 23.9516 34.6488 -13.0583 0 0 0 27.517 -16.705 3.37186 -49.8174 -42.361 -30.2986 27.3932 -24.8793 0.377537 0 0 0 -31.5108 -10.3849 -19.2813 32.3487 -48.7373 28.3258 -48.3648 -24.5896 8.52743 0 0 0 -16.7265 -46.7407 -15.4885 
18.3571 -3.272 -46.0184 -11.1276 -3.86453 107.605 -3.37137 -57.2178 5.91382 9.87238 54.9002 -10.9737 -7.78947 1.93663 -16.3422 -26.4208 -53.2059 -21.3691 -2.90361 43.1163 5.59523 13.6948 10.8281 9.27353 25.506 33.905 -13.7212 0 0 0 26.5524 -15.2553 3.54351 -51.4966 -42.2617 -31.692 27.8134 -25.094 2.02434 0 0 0 -31.9627 -9.02528 -20.0108 37.0024 -51.3974 31.96 -50.2529 -26.7004 7.1493 0 0 0 -18.373 -46.7127 -20.5513 
18.6484 -3.8521 -45.2374 -8.89607 -5.04217 112.576 -2.91369 -57.2779 5.63146 11.2741 58.2693 -12.4063 -9.65505 0.212715 -15.7385 -28.7494 -52.7982 -22.745 -2.33636 43.4813 5.18086 14.4586 12.5831 8.29202 26.6136 33.2363 -13.9912 0 0 0 25.2613 -13.4514 3.69232 -52.73 -41.9553 -32.926 28.4148 -25.3349 3.16784 0 0 0 -32.5541 -7.90576 -20.0303 41.3715 -53.5892 35.3931 -51.6042 -28.549 6.04771 0 0 0 -19.6852 -46.2985 -25.0314 
18.8167 -4.5126 -44.5493 -6.46877 -5.92376 116.844 -1.21682 -55.4947 4.88821 12.3121 61.799 -13.2076 -11.3269 -1.96349 -14.1863 -30.0161 -51.2617 -24.4688 -2.4534 44.4806 5.61461 14.8232 12.543 7.8625 27.2034 32.4675 -14.2027 0 0 0 24.5137 -10.8242 3.55656 -53.9763 -41.7067 -34.1671 28.4146 -25.546 4.23773 0 0 0 -32.9474 -6.57637 -18.5987 44.6494 -55.2764 37.9186 -51.9925 -30.2572 6.08391 0 0 0 -20.4354 -46.0445 -28.6318 
18.8292 -5.1429 -43.9717 -4.0926 -6.50852 120.423 1.13971 -52.795 3.77189 14.5673 65.5423 -15.1247 -12.7733 -4.2067 -12.3998 -30.3632 -49.2304 -26.0027 -2.71774 45.879 5.94841 15.069 9.77612 7.54793 27.5579 31.5825 -14.7415 0 0 0 24.4579 -6.95236 3.44244 -56.004 -41.4358 -36.0817 28.4002 -26.018 5.02975 0 0 0 -32.9901 -4.39456 -15.8713 47.0042 -56.5339 39.7824 -52.2986 -32.0066 6.36853 0 0 0 -20.8884 -45.9813 -31.2178 
18.6534 -5.6802 -43.58 -1.93348 -6.90025 123.163 3.69507 -48.7631 2.3134 17.3715 68.7164 -17.5163 -13.1667 -6.55299 -10.3826 -30.4454 -47.3575 -27.6009 -3.25413 47.0936 6.60316 15.7143 8.04299 8.04142 27.4793 30.6257 -15.298 0 0 0 24.7447 -1.72193 3.06929 -58.8857 -41.342 -38.9521 28.4804 -26.3595 5.64227 0 0 0 -32.8631 -1.13113 -12.3221 48.6864 -57.4483 41.1077 -52.5915 -33.2654 6.75204 0 0 0 -21.1672 -45.8253 -32.9629 
18.2567 -5.9464 -43.4193 -0.415711 -6.89429 124.883 6.57157 -44.3108 0.862277 21.84 71.7714 -20.872 -12.1712 -8.8169 -8.07555 -30.6695 -45.8105 -28.6392 -3.67511 47.0119 6.95898 16.5321 7.76301 8.96362 26.7771 29.8249 -15.5806 0 0 0 25.3847 4.09521 2.6242 -61.8623 -40.9046 -41.6119 29.0867 -27.0838 6.36759 0 0 0 -32.7077 3.07066 -8.94545 50.3221 -57.9852 42.6425 -53.1769 -34.2599 7.09343 0 0 0 -21.5027 -45.9025 -34.0965 
17.6339 -5.9841 -43.4092 0.395954 -6.64796 126.071 8.64495 -39.439 -1.22404 26.2014 73.9949 -23.6392 -10.1444 -10.2981 -5.69575 -31.2501 -44.3897 -28.7577 -3.39436 45.3918 6.56831 17.2713 8.38439 8.82597 25.8548 28.9741 -15.8918 0 0 0 26.3244 9.68014 1.67445 -64.4095 -40.294 -43.49 30.057 -27.7988 6.82713 0 0 0 -32.557 7.71208 -6.40295 51.8658 -58.0797 44.2524 -54.3421 -35.2904 7.13894 0 0 0 -22.1071 -46.1367 -34.8899 
16.8002 -5.8008 -43.5323 0.61805 -6.34322 126.796 10.243 -34.5657 -2.83203 26.6439 74.2992 -23.3431 -8.46749 -10.0215 -3.48565 -31.3636 -43.3048 -27.8549 -2.86426 42.882 6.2274 16.2891 9.69834 7.32008 24.8696 27.8414 -16.3617 0 0 0 27.2638 14.4421 0.172346 -66.4154 -39.7452 -45.0042 31.5171 -28.0818 7.25795 0 0 0 -31.4793 12.545 -5.34476 53.3994 -57.9285 45.7407 -54.7922 -36.6813 7.65682 0 0 0 -22.7368 -46.5012 -34.917 
15.5697 -5.4668 -43.7734 0.185246 -6.11061 126.987 11.5584 -30.0996 -3.91243 23.9952 73.1656 -20.3669 -8.07368 -11.2911 -1.87113 -31.1019 -43.3552 -26.9412 -2.62481 42.526 5.46235 15.0107 9.23077 5.53743 23.7032 27.3931 -16.3616 0 0 0 26.2922 15.4403 -0.417779 -66.9894 -39.3976 -45.5545 32.7113 -28.2316 7.6348 0 0 0 -28.8406 13.4067 -5.74167 53.9259 -57.3531 46.7339 -54.1657 -38.0971 8.96342 0 0 0 -24.2431 -48.0615 -35.6112 
14.2287 -5.0952 -44.032 -0.65399 -5.89091 126.745 11.4673 -27.3884 -4.28597 23.133 71.4946 -19.0313 -8.29146 -13.1618 -1.32019 -30.5093 -43.7787 -26.2779 -2.74837 43.9837 4.86678 13.6027 8.10898 4.28432 22.4345 27.5104 -15.9043 0 0 0 23.7941 13.2182 -0.704876 -66.339 -38.9495 -45.0717 33.5363 -27.7372 7.98582 0 0 0 -25.6702 10.9623 -6.4997 52.8328 -56.4106 46.4112 -53.7396 -39.011 9.64708 0 0 0 -26.0974 -49.8257 -36.8276 
